<?xml version="1.0" standalone="no"?>
<!DOCTYPE svg PUBLIC "-//W3C//DTD SVG 20010904//EN"
 "http://www.w3.org/TR/2001/REC-SVG-20010904/DTD/svg10.dtd">
<svg version="1.0" xmlns="http://www.w3.org/2000/svg"
 width="300.000000pt" height="382.000000pt" viewBox="0 0 300.000000 382.000000"
 preserveAspectRatio="xMidYMid meet">
<metadata>
Created by potrace 1.10, written by Peter Selinger 2001-2011
</metadata>
<g transform="translate(0.000000,382.000000) scale(0.100000,-0.100000)"
fill="#000000" stroke="none">
<path d="M685 3110 c-247 -3 -456 -9 -462 -13 -7 -5 -13 -16 -13 -25 0 -24 58
-62 300 -197 41 -23 206 -118 365 -210 457 -264 494 -283 552 -291 91 -11 130
1 294 95 85 48 235 134 334 190 99 57 205 118 235 136 30 18 73 43 95 55 127
71 324 192 339 209 24 27 15 47 -24 55 -36 7 -1319 5 -2015 -4z m2023 -18 c9
-6 7 -13 -10 -29 -31 -27 -388 -237 -838 -491 -102 -58 -197 -113 -212 -124
-57 -39 -112 -58 -178 -58 -76 0 -105 13 -355 159 -88 51 -259 150 -380 218
-448 256 -521 300 -510 311 15 16 2459 29 2483 14z"/>
<path d="M110 2853 c0 -33 46 -134 99 -218 34 -53 73 -122 211 -365 50 -89
148 -260 235 -410 39 -69 93 -163 120 -210 89 -159 179 -315 260 -455 56 -96
93 -161 185 -327 57 -102 96 -148 125 -148 21 0 24 6 30 52 3 29 5 341 3 693
l-3 640 -25 48 c-28 56 -59 83 -150 136 -36 21 -108 62 -160 93 -52 30 -153
88 -225 128 -71 40 -166 94 -210 120 -285 167 -444 250 -475 250 -15 0 -20 -7
-20 -27z m83 -14 c23 -12 146 -80 272 -152 510 -290 781 -447 812 -472 18 -14
43 -45 56 -68 l22 -42 3 -673 c1 -374 -1 -680 -6 -689 -14 -24 -60 39 -161
217 -48 85 -151 265 -228 400 -77 135 -149 261 -160 280 -11 19 -46 80 -78
135 -32 55 -77 134 -100 175 -60 108 -238 419 -300 525 -144 247 -185 323
-191 353 -8 39 1 40 59 11z"/>
<path d="M2742 2845 c-29 -14 -90 -46 -135 -73 -45 -27 -161 -93 -257 -147
-96 -54 -215 -121 -265 -150 -49 -29 -164 -94 -255 -145 -180 -102 -233 -143
-261 -206 -18 -39 -19 -80 -19 -705 -1 -365 2 -672 5 -682 11 -27 49 -21 73
12 12 16 56 90 98 163 42 73 106 183 141 243 117 198 159 269 203 345 24 41
62 107 85 145 45 76 139 236 273 465 47 80 100 170 118 200 17 30 70 120 116
200 47 80 98 168 114 195 37 64 52 103 53 138 1 34 -15 34 -87 2z m62 -37
c-15 -43 -46 -98 -185 -333 -42 -71 -109 -186 -149 -255 -107 -183 -125 -215
-255 -435 -65 -110 -203 -346 -307 -525 -267 -456 -269 -461 -297 -498 -17
-24 -27 -30 -35 -22 -15 15 -21 1216 -7 1309 19 120 25 125 461 371 41 24 104
60 140 80 229 133 583 332 602 340 44 17 48 13 32 -32z"/>
</g>
</svg>
